<?xml version="1.0" encoding="utf-8"?>
<!-- Generator: Adobe Illustrator 24.3.0, SVG Export Plug-In . SVG Version: 6.00 Build 0)  -->
<svg version="1.1" xmlns="http://www.w3.org/2000/svg" xmlns:xlink="http://www.w3.org/1999/xlink" x="0px" y="0px" width="1200px"
	 height="1200px" viewBox="0 0 1200 1200" enable-background="new 0 0 1200 1200" xml:space="preserve">
<g id="_x32_" display="none">
	<rect display="inline" fill="#272A33" width="1200" height="1200"/>
</g>
<g id="_x31_">
	<g>
		<g>
			<path fill="#FFFFFF" d="M715.654,719.438h-0.002c-30.955,26.934-71.398,43.245-115.652,43.245s-84.697-16.311-115.652-43.245
				h-0.002l-43.795,48.516c42.55,37.4,98.346,60.091,159.448,60.091s116.899-22.69,159.448-60.091L715.654,719.438z"/>
		</g>
		<g>
			<path fill="#FFFFFF" d="M600,1167.714c-76.637,0-150.986-15.012-220.983-44.617c-67.604-28.595-128.317-69.527-180.452-121.662
				C146.43,949.3,105.498,888.587,76.904,820.983C47.298,750.987,32.286,676.637,32.286,600c0-76.637,15.012-150.986,44.618-220.983
				c28.594-67.604,69.527-128.317,121.662-180.452C250.7,146.43,311.413,105.498,379.017,76.904
				C449.014,47.298,523.363,32.286,600,32.286c76.637,0,150.986,15.012,220.982,44.618
				c67.604,28.594,128.317,69.527,180.452,121.662c52.135,52.135,93.067,112.848,121.662,180.452
				c29.605,69.997,44.617,144.346,44.617,220.983c0,76.637-15.012,150.986-44.617,220.982
				c-28.595,67.604-69.527,128.317-121.662,180.452s-112.848,93.067-180.452,121.662
				C750.987,1152.702,676.637,1167.714,600,1167.714z M600,50.286C296.887,50.286,50.286,296.887,50.286,600
				S296.887,1149.714,600,1149.714S1149.714,903.114,1149.714,600S903.114,50.286,600,50.286z"/>
		</g>
		<g>
			<rect x="592" y="189.809" fill="#FFFFFF" width="16" height="106.468"/>
		</g>
		<g>

				<rect x="339.593" y="294.359" transform="matrix(0.7071 -0.7071 0.7071 0.7071 -143.9777 347.5948)" fill="#FFFFFF" width="16" height="106.468"/>
		</g>
		<g>
			<rect x="189.809" y="592" fill="#FFFFFF" width="106.468" height="16"/>
		</g>
		<g>
			<rect x="592" y="904.219" fill="#FFFFFF" width="16" height="106.468"/>
		</g>
		<g>

				<rect x="799.173" y="339.593" transform="matrix(0.7071 -0.7071 0.7071 0.7071 3.8943 704.587)" fill="#FFFFFF" width="106.468" height="16"/>
		</g>
		<g>
			<rect x="903.724" y="592" fill="#FFFFFF" width="106.468" height="16"/>
		</g>
		<g>
			<g>
				<polygon fill="#FFFFFF" points="479.107,261.385 496.07,253.657 499.32,235.302 511.912,249.047 530.373,246.467
					521.192,262.689 529.351,279.449 511.085,275.731 497.667,288.67 495.559,270.149 				"/>
			</g>
			<g>
				<polygon fill="#FFFFFF" points="239.461,539.341 241.25,520.787 226.979,508.794 245.178,504.762 252.174,487.484
					261.633,503.546 280.227,504.86 267.873,518.819 272.37,536.91 255.276,529.475 				"/>
			</g>
			<g>
				<polygon fill="#FFFFFF" points="253.483,728.796 245.755,711.833 227.4,708.583 241.145,695.991 238.564,677.53
					254.787,686.711 271.547,678.552 267.828,696.818 280.767,710.236 262.246,712.344 				"/>
			</g>
			<g>
				<polygon fill="#FFFFFF" points="406.759,273.997 422.74,283.723 441.442,283.29 431.716,299.271 432.149,317.973
					416.168,308.247 397.466,308.68 407.192,292.699 				"/>
			</g>
			<g>
				<polygon fill="#FFFFFF" points="265.696,415.352 284.398,415.785 300.379,406.059 299.946,424.761 309.672,440.742
					290.97,440.309 274.989,450.035 275.422,431.333 				"/>
			</g>
			<g>
				<polygon fill="#FFFFFF" points="266.094,801.144 275.82,785.163 275.388,766.461 291.368,776.186 310.071,775.754
					300.345,791.734 300.778,810.437 284.797,800.711 				"/>
			</g>
			<g>
				<polygon fill="#FFFFFF" points="720.894,261.385 703.931,253.657 700.68,235.302 688.089,249.047 669.628,246.467
					678.809,262.689 670.65,279.449 688.915,275.731 702.334,288.67 704.442,270.149 				"/>
			</g>
			<g>
				<polygon fill="#FFFFFF" points="960.54,539.341 958.751,520.787 973.022,508.794 954.822,504.762 947.827,487.484
					938.368,503.546 919.774,504.86 932.127,518.819 927.631,536.91 944.724,529.475 				"/>
			</g>
			<g>
				<polygon fill="#FFFFFF" points="946.517,728.796 954.245,711.833 972.6,708.583 958.856,695.991 961.436,677.53
					945.214,686.711 928.454,678.552 932.172,696.818 919.233,710.236 937.754,712.344 				"/>
			</g>
			<g>
				<polygon fill="#FFFFFF" points="793.241,273.997 777.261,283.723 758.558,283.29 768.284,299.271 767.852,317.973
					783.832,308.247 802.535,308.68 792.809,292.699 				"/>
			</g>
			<g>
				<polygon fill="#FFFFFF" points="934.305,415.352 915.602,415.785 899.622,406.059 900.054,424.761 890.328,440.742
					909.031,440.309 925.011,450.035 924.579,431.333 				"/>
			</g>
			<g>
				<polygon fill="#FFFFFF" points="933.906,801.144 924.18,785.163 924.613,766.461 908.632,776.186 889.93,775.754
					899.656,791.734 899.223,810.437 915.203,800.711 				"/>
			</g>
		</g>
		<path fill="#FFFFFF" d="M600,445.281c-77.817,0-141.126,63.309-141.126,141.126c0,77.818,63.309,141.126,141.126,141.126
			s141.126-63.309,141.126-141.126C741.126,508.591,677.818,445.281,600,445.281z M701.037,582.342
			c-3.377-0.763-7.622-1.567-12.949-2.353c-20.593-3.038-55.232-5.741-64.44-6.45c7.206-8.28,18.796-21.758,26.035-31.057
			c9.66-12.408,10.506-16.264,10.506-16.264s-3.857,0.846-16.264,10.506c-9.298,7.239-22.777,18.829-31.057,26.035
			c-0.709-9.208-3.411-43.847-6.449-64.44c-0.786-5.327-1.591-9.572-2.353-12.949C656.599,487.459,698.949,529.808,701.037,582.342z
			 M608.143,586.408c0,4.497-3.646,8.143-8.143,8.143c-4.497,0-8.143-3.646-8.143-8.143s3.646-8.143,8.143-8.143
			C604.497,578.265,608.143,581.911,608.143,586.408z M586.47,456.01c1.063-0.881,2.639-0.732,3.52,0.333l9.949,12.024l9.3-11.964
			c0.847-1.09,2.418-1.288,3.508-0.439c1.09,0.847,1.287,2.418,0.439,3.508l-13.125,16.886l-13.923-16.827
			C585.258,458.467,585.406,456.891,586.47,456.01z M595.934,485.37c-0.763,3.377-1.568,7.623-2.353,12.949
			c-3.045,20.639-5.753,55.391-6.454,64.504c-8.096-7.011-20.855-17.919-29.729-24.777c-12.096-9.348-15.886-10.128-15.886-10.128
			s0.78,3.79,10.128,15.886c6.858,8.874,17.766,21.633,24.777,29.729c-9.113,0.701-43.865,3.409-64.504,6.454
			c-5.327,0.786-9.572,1.591-12.949,2.353C501.051,529.808,543.401,487.459,595.934,485.37z M498.963,590.474
			c3.377,0.763,7.623,1.568,12.949,2.353c20.593,3.038,55.232,5.741,64.44,6.449c-7.206,8.28-18.796,21.758-26.035,31.057
			c-9.66,12.408-10.506,16.264-10.506,16.264s3.857-0.846,16.264-10.506c9.298-7.239,22.777-18.829,31.057-26.035
			c0.709,9.208,3.411,43.847,6.449,64.44c0.786,5.327,1.591,9.572,2.353,12.949C543.401,685.357,501.051,643.007,498.963,590.474z
			 M612.747,716.853c-0.456,0.354-0.996,0.526-1.532,0.526c-0.745,0-1.483-0.332-1.976-0.966l-9.3-11.965l-9.949,12.024
			c-0.88,1.064-2.456,1.212-3.52,0.332c-1.064-0.88-1.212-2.456-0.333-3.52l13.923-16.827l13.125,16.887
			C614.034,714.435,613.837,716.006,612.747,716.853z M604.066,687.446c0.763-3.377,1.568-7.623,2.353-12.949
			c3.045-20.64,5.753-55.392,6.454-64.505c8.096,7.011,20.855,17.919,29.729,24.777c12.096,9.348,15.886,10.128,15.886,10.128
			s-0.78-3.79-10.128-15.886c-6.858-8.874-17.766-21.633-24.777-29.729c9.113-0.701,43.865-3.409,64.505-6.454
			c5.326-0.786,9.571-1.591,12.949-2.353C698.949,643.007,656.599,685.357,604.066,687.446z"/>
	</g>
</g>
</svg>
